<svg xmlns="http://www.w3.org/2000/svg" width="25.948" height="24.818" viewBox="0 0 25.948 24.818">
  <g id="Lessons" transform="translate(0 -11.144)">
    <path id="Path_28424" data-name="Path 28424" d="M101.051,470.856a.76.76,0,1,0,0,1.52h14.262a.76.76,0,1,0,0-1.52Z" transform="translate(-95.208 -436.414)" fill="#464646"/>
    <path id="Path_28425" data-name="Path 28425" d="M0,359.716v1.3a1.392,1.392,0,0,0,1.39,1.39H8.6v1.419h8.738v-1.419h7.215a1.392,1.392,0,0,0,1.39-1.39v-1.3Z" transform="translate(0 -330.907)" fill="#464646"/>
    <path id="Path_28426" data-name="Path 28426" d="M24.557,11.144H1.39A1.392,1.392,0,0,0,0,12.534V27.289H25.947V12.534a1.392,1.392,0,0,0-1.39-1.39ZM12.974,24.21a5.374,5.374,0,1,1,5.374-5.374A5.38,5.38,0,0,1,12.974,24.21Z" transform="translate(0 0)" fill="#464646"/>
    <path id="Path_28427" data-name="Path 28427" d="M183.816,86.893a3.853,3.853,0,1,0,3.853,3.853A3.858,3.858,0,0,0,183.816,86.893Zm2.489,4.512-3.343,1.93a.76.76,0,0,1-1.14-.658v-3.86a.76.76,0,0,1,1.14-.658l3.343,1.93a.76.76,0,0,1,0,1.317Z" transform="translate(-170.843 -71.91)" fill="#464646"/>
    <path id="Path_28428" data-name="Path 28428" d="M246.649,152.053l1.062-.613-1.062-.613Z" transform="translate(-234.149 -132.603)" fill="#464646"/>
  </g>
</svg>
