<svg xmlns="http://www.w3.org/2000/svg" width="27.541" height="26.568" viewBox="0 0 27.541 26.568">
  <g id="Speaker" transform="translate(0 -0.558)">
    <g id="Group_21514" data-name="Group 21514" transform="translate(0 0.558)">
      <path id="Path_28421" data-name="Path 28421" d="M24.549,17.914H14.788a4.67,4.67,0,0,1-3.882-1.97,4.561,4.561,0,0,1-.77-3.409,3.135,3.135,0,0,0-.989-2.853l.021-.007L8.205,6.165a.853.853,0,0,0-1.048-.6l-.593.163a.853.853,0,0,0-.6,1.048l.607,2.214c-.044.01-.087.02-.131.032a2.981,2.981,0,0,0-2.021,3.7,3.106,3.106,0,0,0,.88,1.458,12.361,12.361,0,0,0,4.82,7.194,9.251,9.251,0,0,1,2.479,2.6l.006.011.161,3.774H27.736V21.748C27.736,19.761,26.348,17.914,24.549,17.914Z" transform="translate(-0.554 -1.198)" fill="#464646"/>
      <ellipse id="Ellipse_241" data-name="Ellipse 241" cx="4.666" cy="4.57" rx="4.666" ry="4.57" transform="translate(14.468 7.544)" fill="#464646"/>
      <path id="Path_28422" data-name="Path 28422" d="M10.6,5.989a.519.519,0,0,0,.519.519H28.374a.519.519,0,0,0,.519-.519V5.621a.52.52,0,0,0-.519-.519H11.119a.519.519,0,0,0-.519.519v.368Z" transform="translate(-1.362 -1.142)" fill="#464646"/>
      <path id="Path_28423" data-name="Path 28423" d="M.572.559A.571.571,0,0,0,0,1.131v.315a.52.52,0,0,0,.519.519h26.5a.521.521,0,0,0,.521-.519V1.078a.521.521,0,0,0-.521-.52Z" transform="translate(0 -0.558)" fill="#464646"/>
    </g>
  </g>
</svg>
